<svg width="308" height="73" viewBox="0 0 308 73" fill="none" xmlns="http://www.w3.org/2000/svg">
<path d="M115.112 53.72C111.784 53.72 108.792 53 106.136 51.56C103.48 50.088 101.4 48.04 99.896 45.416C98.392 42.76 97.64 39.704 97.64 36.248C97.64 32.792 98.392 29.736 99.896 27.08C101.4 24.424 103.48 22.376 106.136 20.936C108.792 19.464 111.784 18.728 115.112 18.728C119.72 18.728 123.544 19.992 126.584 22.52V25.064C123.672 22.376 119.896 21.032 115.256 21.032C112.376 21.032 109.784 21.656 107.48 22.904C105.208 24.152 103.416 25.928 102.104 28.232C100.792 30.536 100.136 33.208 100.136 36.248C100.136 39.32 100.792 42.008 102.104 44.312C103.448 46.584 105.272 48.344 107.576 49.592C109.88 50.84 112.44 51.464 115.256 51.464C117.688 51.464 119.864 51.144 121.784 50.504C123.704 49.832 125.448 48.728 127.016 47.192V49.736C124.168 52.392 120.2 53.72 115.112 53.72ZM132.022 29.96H134.47V34.856C136.39 31.592 139.974 29.96 145.222 29.96V32.024C139.558 32.024 135.99 34.072 134.518 38.168V53H132.022V29.96ZM152.267 24.488C151.755 24.488 151.323 24.328 150.971 24.008C150.651 23.656 150.491 23.224 150.491 22.712C150.491 22.232 150.651 21.816 150.971 21.464C151.323 21.112 151.755 20.936 152.267 20.936C152.747 20.936 153.163 21.112 153.515 21.464C153.867 21.816 154.043 22.232 154.043 22.712C154.043 23.224 153.867 23.656 153.515 24.008C153.163 24.328 152.747 24.488 152.267 24.488ZM151.019 29.96H153.515V53H151.019V29.96ZM169.433 53.72C167.385 53.72 165.801 53.144 164.681 51.992C163.561 50.808 163.001 49.08 163.001 46.808V31.976H159.305V29.96H163.001V23.048H165.497V29.96H171.449V31.976H165.497V46.904C165.497 48.6 165.865 49.832 166.601 50.6C167.337 51.336 168.569 51.704 170.297 51.704C171.097 51.704 171.929 51.544 172.793 51.224V53.336C171.929 53.592 170.809 53.72 169.433 53.72ZM179.97 24.488C179.458 24.488 179.026 24.328 178.674 24.008C178.354 23.656 178.194 23.224 178.194 22.712C178.194 22.232 178.354 21.816 178.674 21.464C179.026 21.112 179.458 20.936 179.97 20.936C180.45 20.936 180.866 21.112 181.218 21.464C181.57 21.816 181.746 22.232 181.746 22.712C181.746 23.224 181.57 23.656 181.218 24.008C180.866 24.328 180.45 24.488 179.97 24.488ZM178.722 29.96H181.218V53H178.722V29.96ZM200.304 53.72C198 53.72 195.904 53.24 194.016 52.28C192.16 51.288 190.688 49.864 189.6 48.008C188.512 46.152 187.968 43.992 187.968 41.528C187.968 39.096 188.512 36.952 189.6 35.096C190.688 33.208 192.176 31.768 194.064 30.776C195.984 29.752 198.128 29.24 200.496 29.24C202.224 29.24 203.728 29.4 205.008 29.72C206.32 30.04 207.504 30.568 208.56 31.304V33.464C207.472 32.696 206.288 32.152 205.008 31.832C203.728 31.48 202.272 31.304 200.64 31.304C198.72 31.304 196.976 31.72 195.408 32.552C193.872 33.352 192.656 34.52 191.76 36.056C190.864 37.592 190.416 39.416 190.416 41.528C190.416 43.64 190.848 45.464 191.712 47C192.608 48.536 193.824 49.704 195.36 50.504C196.896 51.304 198.608 51.704 200.496 51.704C202.224 51.704 203.744 51.512 205.056 51.128C206.4 50.744 207.68 50.152 208.896 49.352V51.512C207.808 52.28 206.56 52.84 205.152 53.192C203.776 53.544 202.16 53.72 200.304 53.72ZM215.131 19.448H217.675V34.808H238.075V19.448H240.619V53H238.075V36.968H217.675V53H215.131V19.448ZM260.475 53.72C256.219 53.72 253.003 52.664 250.827 50.552C248.651 48.408 247.563 45.4 247.563 41.528V19.448H250.107V41.912C250.107 45.144 251.035 47.544 252.891 49.112C254.747 50.68 257.275 51.464 260.475 51.464C263.675 51.464 266.203 50.68 268.059 49.112C269.947 47.544 270.891 45.144 270.891 41.912V19.448H273.435V41.528C273.435 45.4 272.331 48.408 270.123 50.552C267.947 52.664 264.731 53.72 260.475 53.72ZM280.381 19.448H294.733C300.461 19.448 303.325 22.376 303.325 28.232C303.325 30.056 302.893 31.624 302.029 32.936C301.165 34.248 300.045 35.192 298.669 35.768C300.493 36.184 301.917 37.08 302.941 38.456C303.997 39.832 304.525 41.656 304.525 43.928C304.525 45.784 304.125 47.4 303.325 48.776C302.557 50.152 301.485 51.208 300.109 51.944C298.733 52.648 297.213 53 295.549 53H280.381V19.448ZM294.925 34.76C296.685 34.76 298.109 34.2 299.197 33.08C300.285 31.928 300.829 30.328 300.829 28.28C300.829 25.848 300.301 24.136 299.245 23.144C298.189 22.12 296.605 21.608 294.493 21.608H282.925V34.76H294.925ZM295.165 50.84C297.277 50.84 298.941 50.296 300.157 49.208C301.405 48.088 302.029 46.312 302.029 43.88C302.029 41.448 301.389 39.688 300.109 38.6C298.829 37.48 296.973 36.92 294.541 36.92H282.925V50.84H295.165Z" fill="black"/>
<circle cx="31.5" cy="36.5" r="31.5" fill="url(#paint0_linear_19_50)"/>
<defs>
<linearGradient id="paint0_linear_19_50" x1="5.78571" y1="13.3571" x2="55.9286" y2="64.7857" gradientUnits="userSpaceOnUse">
<stop stop-color="#00FF38"/>
<stop offset="0.990904" stop-color="#FBF9F9" stop-opacity="0"/>
</linearGradient>
</defs>
</svg>
